<?xml version="1.0" encoding="UTF-8" standalone="no"?>
<!--Designed by Vexels.com - 2017 All Rights Reserved - https://vexels.com/terms-and-conditions/-->

<svg
   xmlns:dc="http://purl.org/dc/elements/1.1/"
   xmlns:cc="http://creativecommons.org/ns#"
   xmlns:rdf="http://www.w3.org/1999/02/22-rdf-syntax-ns#"
   xmlns:svg="http://www.w3.org/2000/svg"
   xmlns="http://www.w3.org/2000/svg"
   xmlns:sodipodi="http://sodipodi.sourceforge.net/DTD/sodipodi-0.dtd"
   xmlns:inkscape="http://www.inkscape.org/namespaces/inkscape"
   version="1.1"
   id="Capa_1"
   x="0px"
   y="0px"
   width="15"
   height="15"
   viewBox="0 0 15 15"
   enable-background="new 0 0 1200 1200"
   xml:space="preserve"
   sodipodi:docname="bullet.svg"
   inkscape:version="0.92.3 (2405546, 2018-03-11)"><metadata
   id="metadata69"><rdf:RDF><cc:Work
       rdf:about=""><dc:format>image/svg+xml</dc:format><dc:type
         rdf:resource="http://purl.org/dc/dcmitype/StillImage" /><dc:title></dc:title></cc:Work></rdf:RDF></metadata><defs
   id="defs67">
	
		<radialGradient
   gradientUnits="userSpaceOnUse"
   gradientTransform="matrix(1,0,0,0.3708,0,234.1318)"
   r="470.65231"
   cy="1999.3203"
   cx="600"
   id="SVGID_1_">
		<stop
   id="stop2"
   style="stop-color:#FDD900"
   offset="0" />
		<stop
   id="stop4"
   style="stop-color:#F8D302"
   offset="0.1462" />
		<stop
   id="stop6"
   style="stop-color:#EBC408"
   offset="0.3329" />
		<stop
   id="stop8"
   style="stop-color:#D5A912"
   offset="0.5414" />
		<stop
   id="stop10"
   style="stop-color:#B7851F"
   offset="0.7643" />
		<stop
   id="stop12"
   style="stop-color:#A0692A"
   offset="0.9122" />
	</radialGradient>
	
	<radialGradient
   gradientUnits="userSpaceOnUse"
   r="467.29901"
   cy="517.29932"
   cx="600"
   id="SVGID_2_">
		<stop
   id="stop17"
   style="stop-color:#FDD900"
   offset="0" />
		<stop
   id="stop19"
   style="stop-color:#F8D302"
   offset="0.1462" />
		<stop
   id="stop21"
   style="stop-color:#EBC408"
   offset="0.3329" />
		<stop
   id="stop23"
   style="stop-color:#D5A912"
   offset="0.5414" />
		<stop
   id="stop25"
   style="stop-color:#B7851F"
   offset="0.7643" />
		<stop
   id="stop27"
   style="stop-color:#A0692A"
   offset="0.9122" />
	</radialGradient>
	
	
	<linearGradient
   y2="241.5759"
   x2="600.00049"
   y1="29.459"
   x1="600.00049"
   gradientUnits="userSpaceOnUse"
   id="SVGID_3_">
		<stop
   id="stop34"
   style="stop-color:#FFFFFF;stop-opacity:0.8"
   offset="0" />
		<stop
   id="stop36"
   style="stop-color:#FFFFFF;stop-opacity:0.1"
   offset="0.9122" />
	</linearGradient>
	
	
		<radialGradient
   gradientUnits="userSpaceOnUse"
   gradientTransform="matrix(0.9496,0.0636,-0.0418,0.6886,48.563,165.4464)"
   r="746.60358"
   cy="642.2002"
   cx="542.96729"
   id="SVGID_4_">
		<stop
   id="stop41"
   style="stop-color:#FFFFFF;stop-opacity:0.2"
   offset="0.0049" />
		<stop
   id="stop43"
   style="stop-color:#FFFFFF;stop-opacity:0"
   offset="0.9122" />
	</radialGradient>
	
	
		<linearGradient
   gradientTransform="matrix(0.9991,-0.0421,0.0421,0.9991,-11.8857,18.1465)"
   y2="727.99878"
   x2="728.76898"
   y1="943.14941"
   x1="825.93359"
   gradientUnits="userSpaceOnUse"
   id="SVGID_5_">
		<stop
   id="stop48"
   style="stop-color:#FFFFFF;stop-opacity:0.4"
   offset="0.0049" />
		<stop
   id="stop50"
   style="stop-color:#FFFFFF;stop-opacity:0"
   offset="0.9122" />
	</linearGradient>
	
	<radialGradient
   gradientUnits="userSpaceOnUse"
   r="63.254398"
   cy="283.5405"
   cx="324.6265"
   id="SVGID_6_">
		<stop
   id="stop55"
   style="stop-color:#FFFFFF;stop-opacity:0.2"
   offset="0.0049" />
		<stop
   id="stop57"
   style="stop-color:#FFFFFF;stop-opacity:0"
   offset="0.9122" />
	</radialGradient>
	
</defs><sodipodi:namedview
   pagecolor="#ffffff"
   bordercolor="#666666"
   borderopacity="1"
   objecttolerance="10"
   gridtolerance="10"
   guidetolerance="10"
   inkscape:pageopacity="0"
   inkscape:pageshadow="2"
   inkscape:window-width="1848"
   inkscape:window-height="1053"
   id="namedview65"
   showgrid="false"
   inkscape:zoom="25.173333"
   inkscape:cx="11.218548"
   inkscape:cy="4.9004719"
   inkscape:window-x="1"
   inkscape:window-y="0"
   inkscape:window-maximized="1"
   inkscape:current-layer="Capa_1" />
<g
   id="g4618"
   transform="matrix(0.01604968,0,0,0.01604968,-2.129808,-0.80249144)"><path
     d="M 1067.299,517.306 C 1067.299,775.383 858.085,984.599 600,984.599 341.917,984.599 132.701,775.383 132.701,517.306 132.701,259.215 341.917,50 600,50 c 258.085,0 467.299,209.215 467.299,467.306 z"
     id="path30"
     style="fill:#ffb200;fill-opacity:1"
     inkscape:connector-curvature="0" /><path
     d="m 568.486,931.37 c -4.243,-0.653 -8.824,-1.35 -13.729,-2.104 -9.781,-1.494 -20.825,-2.901 -32.605,-6.122 -5.912,-1.415 -12.07,-2.888 -18.446,-4.411 -6.231,-2.03 -12.669,-4.119 -19.292,-6.281 -13.394,-3.822 -26.661,-10.301 -40.679,-15.979 -6.845,-3.242 -13.598,-6.986 -20.536,-10.526 -3.442,-1.827 -6.967,-3.524 -10.384,-5.476 -3.34,-2.097 -6.699,-4.192 -10.068,-6.304 -6.648,-4.367 -13.724,-8.124 -20.115,-13.035 -6.448,-4.78 -12.923,-9.583 -19.403,-14.385 -6.348,-4.947 -12.241,-10.504 -18.346,-15.689 -6.209,-5.078 -11.842,-10.758 -17.329,-16.488 -11.469,-10.946 -21.282,-23.11 -30.96,-34.645 -4.776,-5.817 -8.806,-12.085 -13.118,-17.902 -4.262,-5.861 -8.41,-11.592 -11.802,-17.627 -3.569,-5.904 -7.04,-11.635 -10.395,-17.191 -3.322,-5.557 -5.832,-11.345 -8.625,-16.654 -2.662,-5.397 -5.379,-10.468 -7.66,-15.437 -0.639,-1.567 -1.189,-2.931 -1.803,-4.439 -14.075,-8.85 -27.317,-18.925 -39.533,-30.132 0.668,1.783 1.371,3.655 2.151,5.723 1.367,3.475 2.658,7.392 4.468,11.497 1.904,4.063 3.965,8.458 6.162,13.159 2.205,4.679 4.548,9.662 7.021,14.913 2.688,5.136 5.829,10.373 8.938,15.923 3.234,5.462 6.217,11.389 10.017,17.082 3.83,5.651 7.798,11.497 11.868,17.511 3.895,6.13 8.563,11.94 13.347,17.845 4.831,5.868 9.39,12.165 14.696,17.989 10.735,11.541 21.612,23.626 34.115,34.384 6.009,5.636 12.149,11.199 18.859,16.146 6.604,5.042 12.981,10.431 19.804,15.197 6.931,4.592 13.861,9.19 20.767,13.761 6.827,4.686 14.327,8.196 21.366,12.302 3.566,1.973 7.117,3.946 10.649,5.904 3.604,1.813 7.318,3.374 10.931,5.05 7.294,3.249 14.382,6.688 21.534,9.625 14.626,5.063 28.405,10.889 42.225,14.059 6.817,1.827 13.444,3.597 19.86,5.317 6.524,1.204 12.824,2.357 18.878,3.467 12.017,2.611 23.292,3.453 33.216,4.425 4.954,0.493 9.597,0.942 13.88,1.37 4.294,0.065 8.244,0.124 11.809,0.182 14.262,0.219 22.408,0.334 22.408,0.334 0,0 -8.136,-0.551 -22.364,-1.53 -3.554,-0.242 -7.49,-0.518 -11.777,-0.808 z"
     id="path32"
     inkscape:connector-curvature="0"
     style="opacity:0.3;fill:#ffffff" /><path
     d="m 826.708,204.971 c 0,62.615 -101.503,113.363 -226.708,113.363 -125.204,0 -226.707,-50.749 -226.707,-113.363 0,-62.601 101.503,-113.349 226.707,-113.349 125.205,0 226.708,50.748 226.708,113.349 z"
     id="path39"
     style="fill:url(#SVGID_3_)"
     inkscape:connector-curvature="0" /><path
     d="M 1016.225,478.106 C 995.088,242.125 816.788,57.877 599.946,57.877 c -231.071,0 -418.387,209.216 -418.387,467.299 0,0.371 0.025,0.733 0.025,1.104 59.536,68.556 168.383,146.998 352.33,139.056 302.968,-13.087 355.554,-211.124 482.311,-187.23 z"
     id="path46"
     style="fill:url(#SVGID_4_)"
     inkscape:connector-curvature="0" /><path
     d="m 834.999,842.532 c 97.114,-59.548 178.8,-196.616 150.237,-226.283 -55.69,-57.856 -433.626,94.647 -462.579,176.92 -28.954,82.251 93.397,183.609 312.342,49.363 z"
     id="path53"
     style="fill:url(#SVGID_5_)"
     inkscape:connector-curvature="0" /><path
     d="m 351.839,283.544 c 0,15.022 -12.186,27.209 -27.208,27.209 -15.03,0 -27.217,-12.187 -27.217,-27.209 0,-15.03 12.187,-27.217 27.217,-27.217 15.022,10e-4 27.208,12.187 27.208,27.217 z"
     id="path60"
     style="fill:url(#SVGID_6_)"
     inkscape:connector-curvature="0" /></g>
</svg>