<?xml version="1.0" encoding="UTF-8" standalone="no"?>
<!--part of the matt icon theme by sixsixfive released under CC0 (https://creativecommons.org/publicdomain/zero/1.0/) on openclipart-->

<svg
   xmlns:dc="http://purl.org/dc/elements/1.1/"
   xmlns:cc="http://creativecommons.org/ns#"
   xmlns:rdf="http://www.w3.org/1999/02/22-rdf-syntax-ns#"
   xmlns:svg="http://www.w3.org/2000/svg"
   xmlns="http://www.w3.org/2000/svg"
   xmlns:xlink="http://www.w3.org/1999/xlink"
   xmlns:sodipodi="http://sodipodi.sourceforge.net/DTD/sodipodi-0.dtd"
   xmlns:inkscape="http://www.inkscape.org/namespaces/inkscape"
   viewBox="0 0 15 15"
   version="1.1"
   id="svg27"
   sodipodi:docname="red-x.svg"
   width="15"
   height="15"
   inkscape:version="0.92.3 (2405546, 2018-03-11)">
  <metadata
     id="metadata31">
    <rdf:RDF>
      <cc:Work
         rdf:about="">
        <dc:format>image/svg+xml</dc:format>
        <dc:type
           rdf:resource="http://purl.org/dc/dcmitype/StillImage" />
        <dc:title></dc:title>
      </cc:Work>
    </rdf:RDF>
  </metadata>
  <sodipodi:namedview
     pagecolor="#ffffff"
     bordercolor="#666666"
     borderopacity="1"
     objecttolerance="10"
     gridtolerance="10"
     guidetolerance="10"
     inkscape:pageopacity="0"
     inkscape:pageshadow="2"
     inkscape:window-width="1848"
     inkscape:window-height="1053"
     id="namedview29"
     showgrid="false"
     inkscape:zoom="5.2149125"
     inkscape:cx="74.96069"
     inkscape:cy="34.424761"
     inkscape:window-x="1"
     inkscape:window-y="0"
     inkscape:window-maximized="1"
     inkscape:current-layer="svg27" />
  <defs
     id="0">
    <linearGradient
       id="2">
      <stop
         id="G"
         stop-color="#eee" />
      <stop
         id="H"
         offset="1"
         stop-color="#eee"
         stop-opacity="0" />
    </linearGradient>
    <linearGradient
       id="3">
      <stop
         id="I" />
      <stop
         id="J"
         offset="1"
         stop-opacity="0" />
    </linearGradient>
    <linearGradient
       id="4">
      <stop
         id="K"
         stop-color="#e85752" />
      <stop
         id="L"
         offset="1"
         stop-color="#d20303" />
    </linearGradient>
    <radialGradient
       cx="60.049999"
       cy="51.389999"
       r="15.03"
       id="5"
       xlink:href="#6"
       gradientUnits="userSpaceOnUse"
       gradientTransform="matrix(-1.404511,1.1888571,-0.99999995,-1.1813958,199.73811,11.750541)" />
    <linearGradient
       id="6">
      <stop
         id="M"
         stop-color="#eee" />
      <stop
         id="N"
         offset="1"
         stop-color="#dcdcdc" />
    </linearGradient>
    <radialGradient
       cx="27.499001"
       cy="122.6"
       r="18.17"
       id="7"
       xlink:href="#3"
       gradientUnits="userSpaceOnUse"
       gradientTransform="matrix(1,0,0,0.18918919,0,99.404179)" />
    <filter
       x="-0.02"
       y="-0.107"
       width="1.04"
       height="1.214"
       id="8"
       style="color-interpolation-filters:sRGB">
      <feGaussianBlur
         stdDeviation="0.3065"
         id="O" />
    </filter>
    <radialGradient
       cx="64.260002"
       cy="-9.9879999"
       r="56.926998"
       id="9"
       xlink:href="#2"
       gradientUnits="userSpaceOnUse"
       gradientTransform="matrix(1.1553766,-1.5120518e-8,1.8629708e-8,1.4235179,-9.9843685,6.2909391)" />
    <linearGradient
       y1="6.6059999"
       x2="0"
       y2="120.27"
       id="A"
       xlink:href="#4"
       gradientUnits="userSpaceOnUse" />
  </defs>
  <g
     id="1"
     transform="matrix(0.12582967,0,0,0.12582967,-0.58399234,-0.4808643)">
    <path
       d="m 7.0297901,18.815002 c -3.1848775,3.184876 -3.1848775,8.351719 0,11.536597 L 40.090688,63.412493 7.0297901,96.473392 c -3.1848689,3.184871 -3.1848775,8.351718 0,11.536598 L 19.688001,120.6682 c 3.184873,3.18488 8.298314,3.13146 11.483185,-0.0534 L 64.232085,87.553892 97.346391,120.6682 c 3.184879,3.18488 8.298309,3.13147 11.483189,-0.0534 l 12.6048,-12.6048 c 3.18487,-3.18488 3.23828,-8.298311 0.0534,-11.48319 L 88.373479,63.412493 121.43438,30.351599 c 3.18487,-3.184878 3.23828,-8.298312 0.0534,-11.483185 L 108.82958,6.2102012 c -3.18488,-3.1848775 -8.35172,-3.1848775 -11.536597,0 L 64.232085,39.271098 31.171186,6.2102012 c -3.184875,-3.1848775 -8.351721,-3.1848775 -11.536599,0 z"
       id="D"
       inkscape:connector-curvature="0"
       style="fill:#9c0f0f" />
    <path
       d="m 25.40625,6.625 c -1.360633,0 -2.753272,0.5032718 -3.8125,1.5625 L 9,20.78125 C 6.8842834,22.896966 6.8842823,26.259282 9,28.375 l 33.0625,33.0625 a 2.7992363,2.7992363 0 0 1 0,3.9375 L 9,98.4375 c -2.1157081,2.11571 -2.1157163,5.47803 0,7.59375 l 12.65625,12.65625 c 2.12218,2.12218 5.396121,2.10387 7.53125,-0.0312 L 62.25,85.59375 a 2.7992363,2.7992363 0 0 1 3.9375,0 l 33.125,33.09375 c 2.11572,2.11572 5.43383,2.09741 7.5625,-0.0312 l 12.59375,-12.625 c 2.14161,-2.14161 2.17822,-5.41553 0.0625,-7.53125 l -33.125,-33.125 a 2.7992363,2.7992363 0 0 1 0,-3.9375 l 33.0625,-33.0625 c 2.14161,-2.141611 2.17821,-5.41554 0.0625,-7.53125 L 106.875,8.1875 c -2.10925,-2.1092467 -5.51575,-2.1092467 -7.625,0 L 66.1875,41.25 a 2.7992363,2.7992363 0 0 1 -3.9375,0 L 29.1875,8.1875 C 28.115329,7.1153277 26.766883,6.625 25.40625,6.625 Z"
       id="E"
       style="fill:url(#A)"
       inkscape:connector-curvature="0" />
    <path
       d="m 103.0625,7.53125 c -1.13473,0 -2.27749,0.433733 -3.15625,1.3125 l -33.0625,33.0625 c -1.448136,1.432735 -3.801864,1.432735 -5.25,0 L 28.53125,8.84375 C 27.635826,7.9483253 26.541791,7.5625 25.40625,7.5625 24.276651,7.5625 23.123806,7.9699439 22.25,8.84375 L 9.65625,21.4375 c -1.7647621,1.764762 -1.7647634,4.516486 0,6.28125 l 33.0625,33.0625 c 1.432735,1.448136 1.432735,3.801864 0,5.25 l -33.0625,33.0625 c -1.7647531,1.76475 -1.7647614,4.51649 0,6.28125 l 12.65625,12.65625 c 1.779585,1.77959 4.420351,1.76714 6.21875,-0.0312 l 33.0625,-33.0625 c 1.448136,-1.432735 3.801864,-1.432735 5.25,0 l 33.125,33.09375 c 1.76747,1.76747 4.46366,1.75508 6.25,-0.0312 l 12.59375,-12.625 c 1.80779,-1.80779 1.83267,-4.44858 0.0625,-6.21875 L 85.75,66.03125 c -1.432735,-1.448136 -1.432735,-3.801864 0,-5.25 l 33.0625,-33.0625 c 1.80779,-1.807788 1.83266,-4.44859 0.0625,-6.21875 L 106.21875,8.84375 c -0.87878,-0.8787726 -2.02152,-1.3125 -3.15625,-1.3125 z"
       id="F"
       style="fill:none;stroke:url(#9);stroke-width:2"
       inkscape:connector-curvature="0" />
  </g>
</svg>
